<mxfile host="65bd71144e">
    <diagram id="FS3LFXY75-1D96ARM_oY" name="tse">
        <mxGraphModel dx="913" dy="578" grid="1" gridSize="10" guides="1" tooltips="1" connect="1" arrows="1" fold="1" page="1" pageScale="1" pageWidth="850" pageHeight="1100" math="0" shadow="0">
            <root>
                <mxCell id="0"/>
                <mxCell id="1" parent="0"/>
                <mxCell id="2" value="&lt;h1&gt;TSE任务参数&lt;/h1&gt;" style="text;html=1;strokeColor=none;fillColor=none;spacing=5;spacingTop=-20;whiteSpace=wrap;overflow=hidden;rounded=0;" vertex="1" parent="1">
                    <mxGeometry x="40" y="40" width="200" height="80" as="geometry"/>
                </mxCell>
                <mxCell id="4" value="&lt;div style=&quot;color: rgb(204, 204, 204); background-color: rgb(31, 31, 31); font-family: Consolas, &amp;quot;Courier New&amp;quot;, monospace; font-size: 14px; line-height: 19px;&quot;&gt;&lt;div style=&quot;line-height: 19px;&quot;&gt;&lt;div style=&quot;line-height: 19px;&quot;&gt;&lt;span style=&quot;color: rgb(86, 156, 214);&quot;&gt;struct&lt;/span&gt;&amp;nbsp;&lt;span style=&quot;color: rgb(78, 201, 176);&quot;&gt;daos_task_args&lt;/span&gt;&lt;/div&gt;&lt;/div&gt;&lt;/div&gt;&lt;div style=&quot;color: rgb(204, 204, 204); background-color: rgb(31, 31, 31); font-family: Consolas, &amp;quot;Courier New&amp;quot;, monospace; font-size: 14px; line-height: 19px;&quot;&gt;&lt;span style=&quot;color: #569cd6;&quot;&gt;任务参数 880&lt;/span&gt;&lt;/div&gt;&lt;div style=&quot;color: rgb(204, 204, 204); background-color: rgb(31, 31, 31); font-family: Consolas, &amp;quot;Courier New&amp;quot;, monospace; font-size: 14px; line-height: 19px;&quot;&gt;&lt;span style=&quot;color: #569cd6;&quot;&gt;TSE_TASK_ARG_LEN&lt;/span&gt;&lt;/div&gt;&lt;div style=&quot;color: rgb(204, 204, 204); background-color: rgb(31, 31, 31); font-family: Consolas, &amp;quot;Courier New&amp;quot;, monospace; font-size: 14px; line-height: 19px;&quot;&gt;&lt;div style=&quot;line-height: 19px;&quot;&gt;&lt;span style=&quot;color: rgb(86, 156, 214);&quot;&gt;任务参数长度=840+互斥锁(40B) = 880&lt;/span&gt;&lt;br&gt;&lt;/div&gt;&lt;/div&gt;" style="whiteSpace=wrap;html=1;" vertex="1" parent="1">
                    <mxGeometry x="40" y="200" width="180" height="150" as="geometry"/>
                </mxCell>
                <mxCell id="5" value="&lt;div style=&quot;background-color: rgb(31, 31, 31); font-family: Consolas, &amp;quot;Courier New&amp;quot;, monospace; font-size: 14px; line-height: 19px;&quot;&gt;&lt;div style=&quot;line-height: 19px;&quot;&gt;&lt;font color=&quot;#569cd6&quot;&gt;任务参数长度&lt;/font&gt;&lt;/div&gt;&lt;div style=&quot;line-height: 19px;&quot;&gt;&lt;font color=&quot;#569cd6&quot;&gt;880&lt;/font&gt;&lt;/div&gt;&lt;/div&gt;" style="whiteSpace=wrap;html=1;" vertex="1" parent="1">
                    <mxGeometry x="240" y="200" width="150" height="150" as="geometry"/>
                </mxCell>
                <mxCell id="6" value="&lt;div style=&quot;background-color: rgb(31, 31, 31); font-family: Consolas, &amp;quot;Courier New&amp;quot;, monospace; font-size: 14px; line-height: 19px;&quot;&gt;&lt;div style=&quot;line-height: 19px;&quot;&gt;&lt;font color=&quot;#569cd6&quot;&gt;136&lt;/font&gt;&lt;/div&gt;&lt;/div&gt;" style="whiteSpace=wrap;html=1;" vertex="1" parent="1">
                    <mxGeometry x="240" y="350" width="150" height="60" as="geometry"/>
                </mxCell>
                <mxCell id="7" value="" style="shape=curlyBracket;whiteSpace=wrap;html=1;rounded=1;flipH=1;labelPosition=right;verticalLabelPosition=middle;align=left;verticalAlign=middle;" vertex="1" parent="1">
                    <mxGeometry x="960" y="210" width="20" height="240" as="geometry"/>
                </mxCell>
                <mxCell id="8" value="&lt;div style=&quot;background-color: rgb(31, 31, 31); font-family: Consolas, &amp;quot;Courier New&amp;quot;, monospace; font-size: 14px; line-height: 19px;&quot;&gt;&lt;div style=&quot;line-height: 19px;&quot;&gt;&lt;div style=&quot;color: rgb(204, 204, 204); line-height: 19px;&quot;&gt;&lt;div style=&quot;line-height: 19px;&quot;&gt;&lt;span style=&quot;color: rgb(86, 156, 214);&quot;&gt;struct&lt;/span&gt;&amp;nbsp;tse_task_private&lt;/div&gt;&lt;/div&gt;&lt;/div&gt;&lt;div style=&quot;line-height: 19px;&quot;&gt;&lt;font color=&quot;#569cd6&quot;&gt;任务私有参数 1016&lt;/font&gt;&lt;/div&gt;&lt;div style=&quot;color: rgb(204, 204, 204); line-height: 19px;&quot;&gt;&lt;span style=&quot;color: #569cd6;&quot;&gt;TSE_PRIV_SIZE&lt;/span&gt;&lt;/div&gt;&lt;div style=&quot;color: rgb(204, 204, 204); line-height: 19px;&quot;&gt;&lt;div style=&quot;line-height: 19px;&quot;&gt;&lt;span style=&quot;color: rgb(86, 156, 214);&quot;&gt;私有大小=任务参数长度+136&lt;/span&gt;&lt;br&gt;&lt;/div&gt;&lt;/div&gt;&lt;div style=&quot;color: rgb(204, 204, 204); line-height: 19px;&quot;&gt;&lt;span style=&quot;color: #569cd6;&quot;&gt;1016&lt;/span&gt;&lt;/div&gt;&lt;/div&gt;" style="whiteSpace=wrap;html=1;" vertex="1" parent="1">
                    <mxGeometry x="390" y="200" width="190" height="210" as="geometry"/>
                </mxCell>
                <mxCell id="9" value="&lt;div style=&quot;background-color: rgb(31, 31, 31); font-family: Consolas, &amp;quot;Courier New&amp;quot;, monospace; font-size: 14px; line-height: 19px;&quot;&gt;&lt;div style=&quot;line-height: 19px;&quot;&gt;&lt;div style=&quot;color: rgb(204, 204, 204); line-height: 19px;&quot;&gt;&lt;span style=&quot;color: rgb(86, 156, 214);&quot;&gt;typedef&lt;/span&gt;&amp;nbsp;&lt;span style=&quot;color: rgb(86, 156, 214);&quot;&gt;struct&lt;/span&gt;&amp;nbsp;&lt;span style=&quot;color: rgb(78, 201, 176);&quot;&gt;tse_task&lt;/span&gt;&lt;span style=&quot;color: #569cd6;&quot;&gt;&lt;br&gt;&lt;/span&gt;&lt;/div&gt;&lt;div style=&quot;color: rgb(204, 204, 204); line-height: 19px;&quot;&gt;&lt;span style=&quot;color: #569cd6;&quot;&gt;任务大小 1024&lt;/span&gt;&lt;/div&gt;&lt;div style=&quot;color: rgb(204, 204, 204); line-height: 19px;&quot;&gt;&lt;span style=&quot;color: #569cd6;&quot;&gt;TSE_TASK_SIZE&lt;/span&gt;&lt;/div&gt;&lt;div style=&quot;line-height: 19px;&quot;&gt;&lt;font color=&quot;#569cd6&quot;&gt;任务长度=私有+8=1024&lt;/font&gt;&lt;/div&gt;&lt;/div&gt;&lt;/div&gt;" style="whiteSpace=wrap;html=1;" vertex="1" parent="1">
                    <mxGeometry x="600" y="200" width="190" height="250" as="geometry"/>
                </mxCell>
                <mxCell id="11" value="&lt;div style=&quot;background-color: rgb(31, 31, 31); font-family: Consolas, &amp;quot;Courier New&amp;quot;, monospace; font-size: 14px; line-height: 19px;&quot;&gt;&lt;div style=&quot;line-height: 19px;&quot;&gt;&lt;font color=&quot;#569cd6&quot;&gt;8&lt;/font&gt;&lt;/div&gt;&lt;/div&gt;" style="whiteSpace=wrap;html=1;" vertex="1" parent="1">
                    <mxGeometry x="390" y="410" width="190" height="40" as="geometry"/>
                </mxCell>
            </root>
        </mxGraphModel>
    </diagram>
</mxfile>